name ./resultDataOpenSim/trcMotMarkerGrf/sub09/grf-15-06.mot
datacolumns 19
datarows 25
range 1.00400000 1.10000000
endheader

                time	     ground_force_vx	     ground_force_vy	     ground_force_vz	     ground_force_px	     ground_force_py	     ground_force_pz	   l_ground_force_vx	   l_ground_force_vy	   l_ground_force_vz	   l_ground_force_px	   l_ground_force_py	   l_ground_force_pz	     ground_torque_x	     ground_torque_y	     ground_torque_z	   l_ground_torque_x	   l_ground_torque_y	   l_ground_torque_z	
          1.00400000	          0.00000000	          0.00000000	          0.00000000	          0.00000000	          0.00000000	          0.00000000	         36.84144505	        452.04950262	          9.34786681	          0.08614058	         -0.10000000	          0.01589802	          0.00000000	          0.00000000	          0.00000000	          0.00000000	         -1.91109034	          0.00000000	
          1.00800000	          0.00000000	          0.00000000	          0.00000000	          0.00000000	          0.00000000	          0.00000000	         39.43451962	        454.06413596	          8.28977298	          0.08669167	         -0.10000000	          0.01662313	          0.00000000	          0.00000000	          0.00000000	          0.00000000	         -2.11012221	          0.00000000	
          1.01200000	          0.00000000	          0.00000000	          0.00000000	          0.00000000	          0.00000000	          0.00000000	         42.17163874	        456.47231833	          7.17371775	          0.08730180	         -0.10000000	          0.01737874	          0.00000000	          0.00000000	          0.00000000	          0.00000000	         -2.31790618	          0.00000000	
          1.01600000	          0.00000000	          0.00000000	          0.00000000	          0.00000000	          0.00000000	          0.00000000	         45.11907887	        459.21352368	          6.01279144	          0.08800859	         -0.10000000	          0.01817448	          0.00000000	          0.00000000	          0.00000000	          0.00000000	         -2.53882609	          0.00000000	
          1.02000000	          0.00000000	          0.00000000	          0.00000000	          0.00000000	          0.00000000	          0.00000000	         48.31689735	        462.23438881	          4.84168376	          0.08883420	         -0.10000000	          0.01901813	          0.00000000	          0.00000000	          0.00000000	          0.00000000	         -2.77565764	          0.00000000	
          1.02400000	          0.00000000	          0.00000000	          0.00000000	          0.00000000	          0.00000000	          0.00000000	         51.78670615	        465.51752183	          3.69239689	          0.08979240	         -0.10000000	          0.01991299	          0.00000000	          0.00000000	          0.00000000	          0.00000000	         -3.02884158	          0.00000000	
          1.02800000	          0.00000000	          0.00000000	          0.00000000	          0.00000000	          0.00000000	          0.00000000	         55.53760582	        469.08855243	          2.57896354	          0.09088490	         -0.10000000	          0.02086046	          0.00000000	          0.00000000	          0.00000000	          0.00000000	         -3.29601908	          0.00000000	
          1.03200000	          0.00000000	          0.00000000	          0.00000000	          0.00000000	          0.00000000	          0.00000000	         59.54810492	        472.99693440	          1.50996833	          0.09209331	         -0.10000000	          0.02186150	          0.00000000	          0.00000000	          0.00000000	          0.00000000	         -3.57201293	          0.00000000	
          1.03600000	          0.00000000	          0.00000000	          0.00000000	          0.00000000	          0.00000000	          0.00000000	         63.75416645	        477.28536093	          0.50853157	          0.09337138	         -0.10000064	          0.02290452	          0.00000000	          0.00000000	          0.00000000	          0.00000000	         -3.84938727	          0.00000000	
          1.04000000	          0.00000000	          0.00000000	          0.00000000	          0.00000000	          0.00000000	          0.00000000	         68.06745527	        481.96257138	         -0.39646772	          0.09465365	         -0.10000100	          0.02394701	          0.00000000	          0.00000000	          0.00000000	          0.00000000	         -4.11955224	          0.00000000	
          1.04400000	          0.00000000	          0.00000000	          0.00000000	          0.00000000	          0.00000000	          0.00000000	         72.40291233	        486.97997572	         -1.19390865	          0.09587387	         -0.10000081	          0.02492862	          0.00000000	          0.00000000	          0.00000000	          0.00000000	         -4.37419684	          0.00000000	
          1.04800000	          0.00000000	          0.00000000	          0.00000000	          0.00000000	          0.00000000	          0.00000000	         76.70156666	        492.21301910	         -1.89489828	          0.09698509	         -0.10000084	          0.02580126	          0.00000000	          0.00000000	          0.00000000	          0.00000000	         -4.60667829	          0.00000000	
          1.05200000	          0.00000000	          0.00000000	          0.00000000	          0.00000000	          0.00000000	          0.00000000	         80.94385344	        497.47930083	         -2.52455621	          0.09797344	         -0.10000068	          0.02655442	          0.00000000	          0.00000000	          0.00000000	          0.00000000	         -4.81294955	          0.00000000	
          1.05600000	          0.00000000	          0.00000000	          0.00000000	          0.00000000	          0.00000000	          0.00000000	         85.14150516	        502.60560993	         -3.11056730	          0.09886514	         -0.10000063	          0.02722291	          0.00000000	          0.00000000	          0.00000000	          0.00000000	         -4.99174623	          0.00000000	
          1.06000000	          0.00000000	          0.00000000	          0.00000000	          0.00000000	          0.00000000	          0.00000000	         89.31521290	        507.48883908	         -3.66632307	          0.09972707	         -0.10000100	          0.02786648	          0.00000000	          0.00000000	          0.00000000	          0.00000000	         -5.14404333	          0.00000000	
          1.06400000	          0.00000000	          0.00000000	          0.00000000	          0.00000000	          0.00000000	          0.00000000	         93.48125570	        512.10417413	         -4.18561386	          0.10063456	         -0.10000100	          0.02853839	          0.00000000	          0.00000000	          0.00000000	          0.00000000	         -5.27207449	          0.00000000	
          1.06800000	          0.00000000	          0.00000000	          0.00000000	          0.00000000	          0.00000000	          0.00000000	         97.65969230	        516.46278114	         -4.65799992	          0.10162758	         -0.10000079	          0.02926916	          0.00000000	          0.00000000	          0.00000000	          0.00000000	         -5.37832604	          0.00000000	
          1.07200000	          0.00000000	          0.00000000	          0.00000000	          0.00000000	          0.00000000	          0.00000000	        101.88386720	        520.54449031	         -5.08831330	          0.10271024	         -0.10000038	          0.03006240	          0.00000000	          0.00000000	          0.00000000	          0.00000000	         -5.46483807	          0.00000000	
          1.07600000	          0.00000000	          0.00000000	          0.00000000	          0.00000000	          0.00000000	          0.00000000	        106.18218295	        524.26607363	         -5.50666435	          0.10386016	         -0.10000054	          0.03089752	          0.00000000	          0.00000000	          0.00000000	          0.00000000	         -5.53292115	          0.00000000	
          1.08000000	          0.00000000	          0.00000000	          0.00000000	          0.00000000	          0.00000000	          0.00000000	        110.54733411	        527.52053450	         -5.96317168	          0.10503469	         -0.10000070	          0.03174525	          0.00000000	          0.00000000	          0.00000000	          0.00000000	         -5.58315001	          0.00000000	
          1.08400000	          0.00000000	          0.00000000	          0.00000000	          0.00000000	          0.00000000	          0.00000000	        114.92289905	        530.23446251	         -6.51166375	          0.10619805	         -0.10000086	          0.03258101	          0.00000000	          0.00000000	          0.00000000	          0.00000000	         -5.61540245	          0.00000000	
          1.08800000	          0.00000000	          0.00000000	          0.00000000	          0.00000000	          0.00000000	          0.00000000	        119.20626931	        532.38446176	         -7.19874522	          0.10732606	         -0.10000088	          0.03338648	          0.00000000	          0.00000000	          0.00000000	          0.00000000	         -5.62885047	          0.00000000	
          1.09200000	          0.00000000	          0.00000000	          0.00000000	          0.00000000	          0.00000000	          0.00000000	        123.26776322	        533.96366014	         -8.05871093	          0.10838443	         -0.10000000	          0.03414263	          0.00000000	          0.00000000	          0.00000000	          0.00000000	         -5.62202109	          0.00000000	
          1.09600000	          0.00000000	          0.00000000	          0.00000000	          0.00000000	          0.00000000	          0.00000000	        126.98304291	        534.92287311	         -9.10614799	          0.10933967	         -0.10000000	          0.03483394	          0.00000000	          0.00000000	          0.00000000	          0.00000000	         -5.59308551	          0.00000000	
          1.10000000	          0.00000000	          0.00000000	          0.00000000	          0.00000000	          0.00000000	          0.00000000	        130.25113884	        535.13137506	        -10.33634468	          0.11016762	         -0.10000000	          0.03545973	          0.00000000	          0.00000000	          0.00000000	          0.00000000	         -5.54035726	          0.00000000	
